<?xml version="1.0" standalone="no"?>
<!DOCTYPE svg PUBLIC "-//W3C//DTD SVG 1.1//EN" "http://www.w3.org/Graphics/SVG/1.1/DTD/svg11.dtd" >
<svg xmlns="http://www.w3.org/2000/svg">
<metadata>
Created by FontForge 20120731 at Fri Nov  4 13:59:07 2016
 By admin
</metadata>
<defs>
<font id="iconfont" horiz-adv-x="1024" >
  <font-face 
    font-family="iconfont"
    font-weight="500"
    font-stretch="normal"
    units-per-em="1024"
    panose-1="2 0 6 3 0 0 0 0 0 0"
    ascent="896"
    descent="-128"
    x-height="792"
    bbox="-0.408695 -128 1025.78 896"
    underline-thickness="0"
    underline-position="0"
    unicode-range="U+0078-E638"
  />
<missing-glyph 
 />
    <glyph glyph-name=".notdef" 
 />
    <glyph glyph-name=".notdef" 
 />
    <glyph glyph-name=".null" horiz-adv-x="0" 
 />
    <glyph glyph-name="nonmarkingreturn" horiz-adv-x="341" 
 />
    <glyph glyph-name="x" unicode="x" horiz-adv-x="1001" 
d="M281 543q-27 -1 -53 -1h-83q-18 0 -36.5 -6t-32.5 -18.5t-23 -32t-9 -45.5v-76h912v41q0 16 -0.5 30t-0.5 18q0 13 -5 29t-17 29.5t-31.5 22.5t-49.5 9h-133v-97h-438v97zM955 310v-52q0 -23 0.5 -52t0.5 -58t-10.5 -47.5t-26 -30t-33 -16t-31.5 -4.5q-14 -1 -29.5 -0.5
t-29.5 0.5h-32l-45 128h-439l-44 -128h-29h-34q-20 0 -45 1q-25 0 -41 9.5t-25.5 23t-13.5 29.5t-4 30v167h911zM163 247q-12 0 -21 -8.5t-9 -21.5t9 -21.5t21 -8.5q13 0 22 8.5t9 21.5t-9 21.5t-22 8.5zM316 123q-8 -26 -14 -48q-5 -19 -10.5 -37t-7.5 -25t-3 -15t1 -14.5
t9.5 -10.5t21.5 -4h37h67h81h80h64h36q23 0 34 12t2 38q-5 13 -9.5 30.5t-9.5 34.5q-5 19 -11 39h-368zM336 498v228q0 11 2.5 23t10 21.5t20.5 15.5t34 6h188q31 0 51.5 -14.5t20.5 -52.5v-227h-327z" />
    <glyph glyph-name="bianji504" unicode="&#xe61d;" 
d="M928 858l58 -58q17 18 23.5 25.5t11.5 17.5t0.5 17t-16.5 17q-10 12 -17 16.5t-17 -0.5t-17.5 -11.5t-25.5 -23.5zM339 211l58 141l518 525l83 -83l-524 -532zM422 326l-19 -51l51 19l493 493l-32 32zM467 282l-96 -39l39 96zM787 -128h-787v794h646v-39h-608v-717h717
v615h32v-653zM563 339h135v-25h-135v25zM115 506h282v-26h-282v26zM115 352h211v-26h-211v26zM115 198h563v-25h-563v25zM115 38h563v-25h-563v25z" />
    <glyph glyph-name="caidanlan101" unicode="&#xe61e;" 
d="M0 864h1024v-83h-1024v83zM0 422h1024v-83h-1024v83zM0 -13h1024v-83h-1024v83z" />
    <glyph glyph-name="dianzan105" unicode="&#xe61f;" horiz-adv-x="1025" 
d="M949 730q-59 53 -138 69t-157 -12q-82 -27 -147 -83q-2 2 -4.5 5.5t-4 5.5t-4.5 2q-143 134 -313 64q-92 -34 -140.5 -105t-39.5 -158q5 -55 35.5 -101.5t80.5 -96.5l121 -122l77 -76q10 -10 18.5 -10t13.5 10q10 9 10 18t-10 14l-77 76q-19 23 -57.5 64.5t-57.5 63.5
q-45 39 -71.5 78.5t-30.5 88.5q-9 75 36 132.5t111 84.5q137 54 262 -57l26 -26q13 -13 25.5 -13t25.5 13q50 50 128 83q67 25 134.5 11t115.5 -62q48 -43 60.5 -114.5t-16.5 -128.5q-5 -12 -12.5 -24t-19.5 -25.5t-20 -23t-25 -25.5t-24.5 -22.5t-27 -24t-24.5 -21.5
q-26 -20 -64 -58q-27 -27 -72 -65.5t-63 -56.5q-25 -25 -89 -76q-14 0 -45 38q-10 10 -18.5 10t-13.5 -10q-10 -10 -10 -18.5t10 -13.5q3 -13 13.5 -27.5t26 -25.5t30.5 -11q8 0 11.5 0.5t7.5 3.5t7 9q17 17 47.5 44t42.5 39q24 21 69.5 63t70.5 65q13 13 64 51
q42 33 68.5 56.5t58 60t46.5 69.5q30 76 14.5 160t-71.5 141zM769 467q4 0 7 -3t6 -3h13v13q0 19 -6 32q0 12 -13 25q-3 3 -6.5 9.5t-6.5 9.5q-13 13 -26 20q-12 12 -25 12h-51l-7 -6q7 -6 13 -6q3 0 6 -2t5 -3l2 -2q-2 2 -9 7q-15 8 -10 12h6q13 0 19 -6q3 0 9.5 -3t9.5 -3
q13 -7 26 -20q6 -6 12.5 -15.5t13.5 -16.5q0 -2 1.5 -4t2.5 -2h2q0 -3 3 -6.5t3 -6.5q10 -9 0 -19q-6 0 -15.5 3t-16.5 3q26 -12 32 -19z" />
    <glyph glyph-name="dianzan106" unicode="&#xe620;" horiz-adv-x="1025" 
d="M949 723q-59 54 -138 70t-157 -12q-92 -35 -141 -83l-19 19q-143 134 -313 64q-92 -39 -140.5 -110t-39.5 -153q5 -55 35.5 -101.5t80.5 -96.5l160 -160q25 -26 38 -32q20 -17 40.5 -38t44.5 -46t37 -38l6 -6q32 -32 64 -32q26 0 58 32q131 131 243 211l6 7
q33 24 55.5 42t51.5 44.5t50.5 56t34.5 61.5q30 76 14.5 160t-71.5 141zM782 474h-6q-7 0 -7 6q-12 13 -19 26q5 -3 10.5 -5t9 -3.5t6.5 -4.5q6 0 6 19q-8 33 -45 58q-19 12 -38 12h-19l25 -25q-11 0 -32 14q-13 8 -6 11q14 10 36 10t41 -10q31 -15 45 -57q6 -13 6 -26
t-13 -25z" />
    <glyph glyph-name="dingdan111" unicode="&#xe621;" 
d="M806 -128h-576q-33 0 -58 27.5t-25 62.5v659q0 38 24.5 63.5t58.5 25.5h570q33 0 58 -27.5t25 -61.5v-666q0 -30 -22.5 -56.5t-54.5 -26.5zM230 672q-19 0 -31.5 -14t-12.5 -37v-666q0 -20 13 -35.5t31 -15.5h576q19 0 29 15t10 36v666q0 20 -13 35.5t-32 15.5h-570z
M614 653h-198q-19 0 -19 19v45q0 19 19 19h198q20 0 20 -19v-45q0 -13 -4 -16t-16 -3zM269 486h505v-44h-505v44zM269 326h505v-44h-505v44zM269 166h505v-44h-505v44z" />
    <glyph glyph-name="dingwei104" unicode="&#xe622;" 
d="M512 -19l-19 19q-7 6 -38 46.5t-78 108t-91 139t-75.5 146.5t-31.5 123q0 91 45.5 168t122 121t165.5 44t165.5 -44t122 -121t45.5 -168q0 -50 -31.5 -125.5t-75.5 -146.5t-91 -138.5t-78 -106.5t-38 -46zM512 851q-120 0 -204 -84t-84 -204q0 -49 34.5 -126.5
t86.5 -155.5t93.5 -135t73.5 -95q288 375 288 512q0 120 -84 204t-204 84zM512 403q-67 0 -116.5 49.5t-49.5 117t49.5 117t116.5 49.5t116.5 -49.5t49.5 -116.5q0 -71 -49 -119t-117 -48zM512 710q-58 0 -99.5 -41.5t-41.5 -99t41.5 -99t99.5 -41.5t99.5 41.5t41.5 99
t-41.5 99t-99.5 41.5zM672 102v-25q73 -15 116.5 -37.5t43.5 -45.5q0 -36 -91.5 -66t-228.5 -30q-133 0 -226.5 30t-93.5 66q0 24 42 46.5t118 36.5v25q-81 -15 -130 -43t-49 -65t50.5 -65.5t127 -42.5t161.5 -14t161.5 14t127 42.5t50.5 65.5t-49 65t-130 43z" />
    <glyph glyph-name="dizhi414" unicode="&#xe623;" 
d="M646 6h-12l-212 71h-6l-250 -71q-12 0 -18.5 6.5t-6.5 19.5v154q0 4 4 8t8.5 4t8.5 -4t4 -8v-148l244 71h19l211 -71h6l212 90v602l-199 -84l-243 84h-6l-237 -103q-7 0 -7 -13v-345q0 -5 -4 -9t-8 -4q-5 0 -9 7t-4 12v346q0 22 19 32l237 102q5 5 13 5t12 -5l231 -89
l192 83h19q13 -13 13 -19v-608q0 -6 -4.5 -13t-8.5 -7l-211 -89q0 -5 -1 -6t-6 -1zM390 243q-38 0 -64 26q-64 70 -64 288q0 19 13 19q5 0 9 -4t4 -9q1 -2 0 -21.5t2 -54.5t7.5 -70t17.5 -70t31 -53q19 -19 44 -19q45 0 71 26q20 20 29.5 53.5t9.5 57.5l-1 23q3 20 9.5 38.5
t18.5 38.5t33 32.5t48 12.5q24 0 43 -9t29.5 -27t17 -34.5t9 -42t3 -39t0.5 -34.5q0 -5 -4 -9t-8.5 -4t-8.5 4t-4 9q0 27 -1.5 46.5t-6 42.5t-13 37.5t-24.5 24t-38 9.5t-38.5 -10t-24.5 -24t-13 -28t-6 -24l-2 -10q1 -4 1 -10.5t-1.5 -26t-5.5 -37t-14 -38.5t-24 -35
q-27 -45 -84 -45zM704 262l51 52q10 9 0.5 18.5t-19.5 0.5l-51 -51l-45 44q-10 10 -19.5 0.5t0.5 -19.5l51 -51l-51 -51q-10 -10 0 -19l6 -7q7 13 13 13l51 51l51 -51l7 -6q6 0 6 6q10 10 0 19z" />
    <glyph glyph-name="duigou506" unicode="&#xe624;" 
d="M512 896q-138 0 -256 -69t-187 -187t-69 -256t69 -256t187 -187t256 -69t256 69t187 187t69 256t-69 256t-187 187t-256 69zM832 506l-326 -327q-20 -19 -42 -19t-42 19l-160 160q-19 19 -19 41.5t19 41.5q15 20 39 20t38 -20l122 -121l288 288q19 19 41.5 19t41.5 -19
t19 -41.5t-19 -41.5z" />
    <glyph glyph-name="fankui416" unicode="&#xe625;" 
d="M659 13h-294q-45 0 -77 31t-32 78v524q0 43 32.5 73t76.5 30h269q12 0 25 -13l96 -96q13 -13 13 -26v-153q0 -5 -4 -9t-9 -4t-9 4t-4 9v153q0 5 -0.5 6t-5.5 1l-96 102l-6 7h-269q-34 0 -58.5 -25t-24.5 -59v-524q0 -34 24.5 -59t58.5 -25h301q33 0 58 25t25 59v204
q0 5 4 9t8.5 4t8.5 -4t4 -9v-211q-5 -44 -36.5 -73t-78.5 -29zM518 595h-160q-4 0 -8 4t-4 9t4 9t8 4h160q5 0 9 -4t4 -9q-2 -2 -4 -5.5t-4 -5.5t-5 -2zM666 499h-308q-4 0 -8 4t-4 9t4 9t8 4h314q5 0 9 -4t4 -9q-13 -13 -19 -13zM666 403h-308q-4 0 -8 4t-4 9t4 9t8 4h314
q5 0 9 -4t4 -9q-13 -13 -19 -13zM666 307h-308q-4 0 -8 4t-4 9t4 9t8 4h314q5 0 9 -4t4 -9q0 -4 -7 -8.5t-12 -4.5z" />
    <glyph glyph-name="gerenzhongxin113" unicode="&#xe626;" 
d="M512 339q82 0 137 55.5t55 136.5q0 61 19 128q7 19 7 51q0 3 1 8t1 8.5t-2 3.5q-3 2 -8 2t-8 -1l-4 -1q-84 -17 -147 -7h-51q-82 0 -137 -55t-55 -136.5t55 -137t137 -55.5zM512 704q26 0 45 -6q65 -11 141 0q0 -20 -7 -26q-13 -90 -13 -134q0 -68 -49.5 -117.5
t-116.5 -49.5t-116.5 49.5t-49.5 117t49.5 117t116.5 49.5zM512 326q-74 0 -133 -25t-97 -66.5t-63 -99t-35.5 -117.5t-10.5 -127v-19h685v19q-3 40 -9 77t-18.5 82t-29.5 83t-44 74.5t-61 62t-81 41t-103 15.5zM749 -102q0 39 -6.5 72.5t-16 53.5t-19 34t-16.5 20l-6 5
q-5 5 -12 2t-7 -8q0 -19 6 -19l5.5 -5.5t12.5 -16.5t15.5 -29.5t12 -45.5t5.5 -63h-531q0 28 3 58t11.5 69.5t22 74.5t38 70.5t56.5 60.5t79 41t104 16q68 0 122.5 -26t88.5 -66.5t57 -94.5t33 -103.5t12 -99.5h-70z" />
    <glyph glyph-name="gouwuche112" unicode="&#xe627;" 
d="M979 493h-281l147 147q13 13 13 38q0 13 -13 39q-15 14 -36.5 14t-40.5 -14l-218 -224v-7h-505q-19 5 -32 -9.5t-13 -34.5t13 -36t32 -16h38l45 -441q0 -33 23.5 -55t53.5 -22h582q34 0 68.5 34.5t34.5 67.5l51 423h38q20 0 32.5 13.5t12.5 37.5q0 45 -45 45zM570 461
q0 13 6 13l19 19l199 198q6 7 12 7q13 0 13 -7q7 -6 7 -13q0 -12 -7 -12l-166 -173l-32 -32l-19 -19q-5 -5 -13 -5t-13 5q-6 6 -6 19v0zM38 429q-4 0 -8 4t-4 9t4 12t8 7h487q0 -6 1.5 -10.5t5.5 -11.5t6 -10h-500zM864 -32q0 -19 -25.5 -44.5t-44.5 -25.5h-583
q-19 0 -32 13.5t-13 37.5l-57 441h800zM979 429h-345l32 32h313q13 0 13 -19q0 -6 -2 -9t-4.5 -3.5t-6.5 -0.5zM192 211h64q14 0 23 9t9 23.5t-9 23t-23 8.5h-64q-14 0 -23 -8.5t-9 -23.5q0 -11 9.5 -21.5t22.5 -10.5zM333 211h64q14 0 23 9t9 23.5t-9 23t-23 8.5h-64
q-15 0 -23.5 -8.5t-8.5 -23.5q0 -11 9 -21.5t23 -10.5zM474 211h64q13 0 22.5 10.5t9.5 21.5q0 15 -9 23.5t-23 8.5h-64q-15 0 -23.5 -8.5t-8.5 -23.5q0 -11 9 -21.5t23 -10.5zM621 211h64q14 0 23 9t9 23.5t-9 23t-23 8.5h-64q-15 0 -23.5 -8.5t-8.5 -23.5q0 -11 9 -21.5
t23 -10.5zM762 211h64q14 0 23 9t9 23.5t-9 23t-23 8.5h-64q-15 0 -23.5 -8.5t-8.5 -23.5q0 -11 9 -21.5t23 -10.5zM192 102h64q14 0 23 9t9 23.5t-9 23t-23 8.5h-64q-14 0 -23 -8.5t-9 -23.5q0 -10 9.5 -21t22.5 -11zM333 102h64q14 0 23 9t9 23.5t-9 23t-23 8.5h-64
q-15 0 -23.5 -8.5t-8.5 -23.5q0 -10 9 -21t23 -11zM474 102h64q13 0 22.5 11t9.5 21q0 15 -9 23.5t-23 8.5h-64q-15 0 -23.5 -8.5t-8.5 -23.5q0 -10 9 -21t23 -11zM621 102h64q14 0 23 9t9 23.5t-9 23t-23 8.5h-64q-15 0 -23.5 -8.5t-8.5 -23.5q0 -10 9 -21t23 -11zM762 102
h64q14 0 23 9t9 23.5t-9 23t-23 8.5h-64q-15 0 -23.5 -8.5t-8.5 -23.5q0 -10 9 -21t23 -11zM192 0h64q14 0 23 9t9 23t-9 23t-23 9h-64q-14 0 -23 -9t-9 -23t9 -23t23 -9zM333 0h64q14 0 23 9t9 23t-9 23t-23 9h-64q-15 0 -23.5 -9t-8.5 -23t8.5 -23t23.5 -9zM474 0h64
q14 0 23 9t9 23t-9 23t-23 9h-64q-15 0 -23.5 -9t-8.5 -23t8.5 -23t23.5 -9zM621 0h64q14 0 23 9t9 23t-9 23t-23 9h-64q-15 0 -23.5 -9t-8.5 -23t8.5 -23t23.5 -9zM762 0h64q14 0 23 9t9 23t-9 23t-23 9h-64q-15 0 -23.5 -9t-8.5 -23t8.5 -23t23.5 -9z" />
    <glyph glyph-name="guanyu417" unicode="&#xe628;" 
d="M749 237v57q0 5 -4 9t-9 4t-9 -4t-4 -9v-57h-429v179q0 91 63.5 154.5t154.5 63.5t154.5 -63.5t63.5 -154.5v-58q0 -4 4 -8t8.5 -4t8.5 4t4 8v58q0 96 -64 164t-160 73v83q0 19 -19 19q-9 0 -14 -6.5t-5 -12.5v-83q-92 -10 -155 -78t-63 -159v-179q-29 0 -49.5 -21
t-20.5 -49.5t20.5 -49.5t49.5 -21h147q0 -37 27.5 -63.5t62.5 -26.5t62.5 26.5t27.5 63.5h147q29 0 49.5 21t20.5 49.5t-20.5 49.5t-49.5 21zM512 38q-27 0 -46 19t-24 45h134q0 -28 -17.5 -46t-46.5 -18zM749 122h-474q-19 0 -32 12.5t-13 32t13 32t32 12.5h474
q19 0 32 -12.5t13 -32t-13 -32t-32 -12.5z" />
    <glyph glyph-name="jiahao108" unicode="&#xe629;" 
d="M512 896q-138 0 -256 -69t-187 -187t-69 -256t69 -256t187 -187t256 -69t256 69t187 187t69 256t-69 256t-187 187t-256 69zM742 326h-172v-172q0 -24 -17 -41t-41 -17t-41 17t-17 41v172h-172q-24 0 -41 17t-17 41t17 41t41 17h172v172q0 24 17 41t41 17t41 -17t17 -41
v-172h172q24 0 41 -17t17 -41t-17 -41t-41 -17z" />
    <glyph glyph-name="jianhao107" unicode="&#xe62a;" 
d="M512 -128q-138 0 -256 69t-187 187t-69 256t69 256t187 187t256 69t256 -69t187 -187t69 -256t-69 -256t-187 -187t-256 -69zM512 838q-92 0 -176 -36t-145 -97t-97 -145t-36 -176t36 -176t97 -145t145 -97t176 -36t176 36t145 97t97 145t36 176t-36 176t-97 145t-145 97
t-176 36zM742 326h-460q-24 0 -41 17t-17 41t17 41t41 17h460q24 0 41 -17t17 -41t-17 -41t-41 -17z" />
    <glyph glyph-name="shanchu505" unicode="&#xe62b;" 
d="M512 896q-138 0 -256 -69t-187 -187t-69 -256t69 -256t187 -187t256 -69t256 69t187 187t69 256t-69 256t-187 187t-256 69zM742 326h-460q-24 0 -41 17t-17 41t17 41t41 17h460q24 0 41 -17t17 -41t-17 -41t-41 -17z" />
    <glyph glyph-name="shezhi401" unicode="&#xe62c;" 
d="M589 -128h-154q-6 0 -19 13l-19 134q0 5 -4 9t-9 4q-6 3 -19 6.5t-19 6.5h-20l-108 -77q-3 -3 -8 -4t-8.5 0t-3.5 4l-102 102q-10 10 0 20l77 108q9 10 0 20q-13 25 -13 38q0 5 -4 9t-9 4l-134 25q-5 0 -9 4t-4 9v154q0 6 13 19l134 19q5 0 9 4t4 9q3 6 6.5 19t6.5 19v20
l-77 102q-5 5 -5 12t5 7l102 103q10 9 20 0l108 -77q10 -10 20 0q25 13 38 13q5 0 9 4t4 8l19 135q10 19 19 19h147q7 0 20 -13l19 -134q0 -5 4 -9t9 -4q6 -3 19 -6.5t19 -6.5h19l109 77q5 5 12 5t7 -5l103 -102q9 -10 0 -20l-77 -108q-10 -10 0 -20q13 -25 13 -38
q0 -5 4 -9t8 -4l135 -19q13 0 13 -19v-147q0 -7 -13 -20l-135 -19q-4 0 -8 -4t-4 -9q-4 -6 -7 -19t-6 -19v-19l77 -109q4 -5 4 -12t-4 -7l-103 -103q-9 -9 -19 0l-109 77q-9 10 -19 0q-26 -13 -38 -13q-5 0 -9 -4t-4 -8l-19 -135q0 -19 -13 -19zM474 -83h76q7 0 20 13
l19 121q0 5 4 9t9 4q25 6 76 32q3 3 6.5 3t7 -1.5t6.5 -1.5l102 -70q5 -5 12 -5t7 5l51 51q10 9 0 19l-76 109l6 13q6 12 16 34.5t16 35.5v19l134 19q13 0 13 20v76q0 7 -13 20l-121 19q-5 0 -9 4t-4 9q-6 25 -32 76q-3 3 -3 6.5t1.5 7t1.5 6.5l70 102q5 5 5 12t-5 7l-51 51
q-9 10 -19 0l-109 -76l-13 6q-12 6 -34.5 16t-35.5 16h-19l-26 134q0 13 -19 13h-70q-7 0 -20 -13l-19 -121q0 -5 -4 -9t-9 -4q-9 -5 -34 -15t-36 -17q-3 -3 -6 -3t-7 1.5t-6 1.5l-103 70q-3 3 -7.5 4.5t-8 0t-3.5 -4.5l-57 -51q-10 -9 0 -19l76 -109l-6 -19
q-13 -19 -26 -70l-6 -13l-134 -26q-13 0 -13 -19v-77q0 -6 13 -19l121 -19q5 4 9 1.5t4 -8.5q9 -35 32 -70q3 -3 3 -6t-1.5 -7t-1.5 -6l-70 -103q-3 -3 -4.5 -7.5t0 -8t4.5 -3.5l51 -51q9 -10 19 0l109 77l13 -7q12 -6 34.5 -15.5t35.5 -16.5l19 -6l26 -134q0 -5 4 -9t9 -4z
M544 237q-82 -15 -138 41t-41 138q10 45 42.5 78.5t78.5 43.5q82 14 138 -42t42 -138q-15 -48 -47 -80t-75 -41zM544 512q-72 14 -123 -37t-37 -123q10 -34 36 -60t60 -36q72 -14 123 37t37 123q-10 34 -36 60t-60 36z" />
    <glyph glyph-name="shouye110" unicode="&#xe62d;" 
d="M19 -64h986v-64h-986v64zM550 563v96h90v77h-250v-77h90v-96q-98 -4 -177.5 -36t-131.5 -82t-87 -118t-50 -139.5t-15 -149.5v-25h986v25q2 78 -12 150t-48 139t-86 118t-131 82.5t-178 35.5zM77 58q0 32 4 67.5t16.5 82t32 88t54 83.5t79 72t110.5 48.5t145 18.5
q93 0 168.5 -26.5t125.5 -70.5t84 -104.5t49 -125t15 -133.5h-883zM192 147zM160 147q0 -13 9.5 -22.5t22.5 -9.5t22.5 9.5t9.5 22.5t-9.5 22.5t-22.5 9.5t-22.5 -9.5t-9.5 -22.5zM275 371q-29 -29 -49 -64t-25.5 -57t-2.5 -26q2 0 12.5 20.5t31.5 54.5t46 59q46 46 125 88
l3 2l-3 1q-37 -4 -90 -39q-27 -18 -48 -39z" />
    <glyph glyph-name="xiajiantou002" unicode="&#xe62e;" 
d="M493 115q0 13 6 13l493 544q11 11 32 0q0 -26 -6 -32l-493 -544q-11 -11 -32 0v19zM0 653q0 13 6 13q11 10 32 0l487 -538q10 -11 0 -32q-11 -11 -32 0l-487 544q-6 6 -6 13z" />
    <glyph glyph-name="xiaoxi415" unicode="&#xe62f;" 
d="M608 90q0 -15 -11 -19t-21 6l-64 64v13q10 9 19 0l58 -58v90q0 14 8.5 23t23.5 9h224q5 0 9 4t4 8v429q0 5 -4 9t-9 4h-666q-5 0 -9 -4t-4 -9v-422q0 -5 4 -9t9 -4h282l32 -32q9 -10 -0.5 -19.5t-18.5 0.5l-26 25h-269q-14 0 -26 12t-12 27v422q0 15 12 27t26 12h666
q14 0 26 -12t12 -27v-422q0 -16 -10 -27.5t-28 -11.5h-224q-5 0 -9 -4t-4 -8v-96zM384 480zM346 480q0 -16 11 -27t27 -11t27 11t11 27t-11 27t-27 11t-27 -11t-11 -27zM512 480zM474 480q0 -16 11 -27t27 -11t27 11t11 27t-11 27t-27 11t-27 -11t-11 -27zM640 480zM602 480
q0 -16 11 -27t27 -11t27 11t11 27t-11 27t-27 11t-27 -11t-11 -27z" />
    <glyph glyph-name="xuangerenzhongxin204" unicode="&#xe631;" 
d="M512 339q82 0 140 58.5t58 140.5q0 44 13 134q0 10 3.5 24.5t3.5 20.5q0 2 1 7.5t1 8.5t-2 3q-3 3 -8 3t-10.5 -1.5t-7.5 -1.5q-29 -6 -53.5 -7.5t-57 0t-36.5 1.5h-51q-82 0 -140.5 -58.5t-58.5 -140.5q5 -78 64.5 -135t140.5 -57zM512 326q-74 0 -134 -24.5t-98.5 -66
t-64.5 -99t-37.5 -119.5t-11.5 -132v-13h551q0 108 -53 162l-5 4q-6 7 -6 20q6 6 19 6q3 -2 7.5 -6.5t17 -21t21.5 -36t16.5 -54.5t7.5 -74h109v13q2 44 -4 90.5t-20.5 97.5t-42 95.5t-63.5 80.5t-90 56.5t-119 20.5z" />
    <glyph glyph-name="xuangouwuche203" unicode="&#xe632;" 
d="M979 493h-281l147 147q13 13 13 38q0 13 -13 39q-15 14 -36.5 14t-40.5 -14l-218 -224v-7h-505q-19 5 -32 -9.5t-13 -34.5t13 -36t32 -16h38l45 -441q0 -33 23.5 -55t53.5 -22h582q34 0 68.5 34.5t34.5 67.5l51 423h38q20 0 32.5 13.5t12.5 37.5q0 45 -45 45zM570 461
q0 13 6 13l19 19l199 198q6 7 12 7q13 0 13 -7q7 -6 7 -13q0 -12 -7 -12l-166 -173l-32 -32l-19 -19q-5 -5 -13 -5t-13 5q-6 6 -6 19v0zM38 429q-4 0 -8 4t-4 9t4 12t8 7h487q0 -6 1.5 -10.5t5.5 -11.5t6 -10h-500zM256 0h-64q-14 0 -23 9t-9 23t9 23t23 9h64q14 0 23 -9
t9 -23t-9 -23t-23 -9zM256 102h-64q-14 0 -23 9t-9 23.5t9 23t23 8.5h64q14 0 23 -8.5t9 -23.5q0 -10 -9.5 -21t-22.5 -11zM256 211h-64q-13 0 -22.5 10.5t-9.5 21.5q0 15 9 23.5t23 8.5h64q14 0 23 -8.5t9 -23.5q0 -11 -9.5 -21.5t-22.5 -10.5zM397 0h-64q-15 0 -23.5 9
t-8.5 23t8.5 23t23.5 9h64q14 0 23 -9t9 -23t-9 -23t-23 -9v0zM397 102h-64q-15 0 -23.5 9t-8.5 23.5t8.5 23t23.5 8.5h64q14 0 23 -8.5t9 -23.5q0 -10 -9.5 -21t-22.5 -11zM397 211h-64q-14 0 -23 10.5t-9 21.5q0 15 8.5 23.5t23.5 8.5h64q14 0 23 -8.5t9 -23.5
q0 -11 -9.5 -21.5t-22.5 -10.5zM544 0h-64q-14 0 -23 9t-9 23t9 23t23 9h64q14 0 23 -9t9 -23t-9 -23t-23 -9v0zM544 102h-64q-13 0 -22.5 11t-9.5 21q0 15 9 23.5t23 8.5h64q14 0 23 -8.5t9 -23.5q0 -10 -9.5 -21t-22.5 -11zM544 211h-64q-13 0 -22.5 10.5t-9.5 21.5
q0 15 9 23.5t23 8.5h64q14 0 23 -8.5t9 -23.5q0 -11 -9.5 -21.5t-22.5 -10.5zM685 0h-64q-15 0 -23.5 9t-8.5 23t8.5 23t23.5 9h64q14 0 23 -9t9 -23t-9 -23t-23 -9v0zM685 102h-64q-15 0 -23.5 9t-8.5 23.5t8.5 23t23.5 8.5h64q14 0 23 -8.5t9 -23.5q0 -10 -9.5 -21
t-22.5 -11zM685 211h-64q-14 0 -23 10.5t-9 21.5q0 15 8.5 23.5t23.5 8.5h64q14 0 23 -8.5t9 -23.5q0 -11 -9.5 -21.5t-22.5 -10.5zM826 0h-64q-15 0 -23.5 9t-8.5 23t8.5 23t23.5 9h64q14 0 23 -9t9 -23t-9 -23t-23 -9v0zM826 102h-64q-15 0 -23.5 9t-8.5 23.5t8.5 23
t23.5 8.5h64q14 0 23 -8.5t9 -23.5q0 -10 -9.5 -21t-22.5 -11zM826 211h-64q-15 0 -23.5 9t-8.5 23.5t8.5 23t23.5 8.5h64q14 0 23 -8.5t9 -23.5q0 -11 -9.5 -21.5t-22.5 -10.5zM979 429h-345l32 32h313q13 0 13 -19q0 -6 -2 -9t-4.5 -3.5t-6.5 -0.5z" />
    <glyph glyph-name="xuanshouye201" unicode="&#xe633;" 
d="M19 -64h986v-64h-986v64zM544 563v96h90v77h-250v-83h90v-96q-99 -2 -178.5 -33t-131 -80.5t-86.5 -117t-50 -139t-15 -149.5v-25h985v25q2 78 -11.5 150t-48 139t-86 118t-131 82.5t-177.5 35.5zM186 102q-15 0 -23.5 9t-8.5 23.5t8.5 23t23 8.5t23.5 -8.5t9 -23.5
q0 -10 -9.5 -21t-22.5 -11zM282 358q-46 -46 -88 -125q-2 -2 -2 -3q-4 0 2 22.5t26 57.5t49 61q29 29 64 49t57 26t26 2q2 -2 -5 -5.5t-21.5 -10.5t-31 -16t-38 -24.5t-38.5 -33.5z" />
    <glyph glyph-name="youjiantou003" unicode="&#xe634;" 
d="M781 365q-13 0 -13 6l-544 487q-11 10 0 32q5 4 16 4t16 -4l544 -493q11 -11 0 -32h-19zM243 -128q-13 0 -13 6q-10 11 0 32l538 487q11 10 32 0q11 -11 0 -32l-544 -487l-6 -4t-5 -2h-2z" />
    <glyph glyph-name="yue412" unicode="&#xe635;" 
d="M557 13q-13 0 -26 13l-128 128q-5 4 -5 12t5 13t13 5t13 -5l128 -128h13l281 282q5 5 5 6.5t-5 6.5l-377 371h-288q-3 0 -4.5 -1.5t-2.5 -3.5v-2v-294l154 -154q5 -4 5 -12t-5 -13t-13 -5t-13 5l-153 160q-13 13 -13 25v288q0 19 11.5 29t26.5 10h288q13 0 26 -13
l371 -378q10 -14 10 -31t-10 -26l-282 -282q0 -6 -25 -6zM378 429q-39 0 -64.5 25.5t-25.5 64t25.5 64t64 25.5t64 -25.5t25.5 -64.5q0 -37 -27.5 -63t-61.5 -26zM378 576q-24 0 -41 -17t-17 -41t17 -40.5t41 -16.5t40.5 16.5t16.5 40.5t-16.5 41t-40.5 17z" />
    <glyph glyph-name="wodedingdan411" unicode="&#xe636;" 
d="M762 6h-500q-28 0 -49 24t-21 53v576q0 33 20.5 55t49.5 22h493q28 0 49.5 -23.5t21.5 -53.5v-576q5 -26 -14 -51.5t-50 -25.5zM262 704q-14 0 -26 -13t-12 -32v-576q0 -15 12 -30t26 -15h500q14 0 23 13t9 32v576q0 15 -12.5 30t-26.5 15h-493zM595 685h-166
q-19 0 -19 19v38q0 20 19 20h173q19 0 19 -20v-38q-5 -13 -10 -16t-16 -3zM301 544h435v-38h-435v38zM301 403h435v-38h-435v38zM301 262h435v-38h-435v38z" />
    <glyph glyph-name="wodeshoucang413" unicode="&#xe637;" 
d="M832 640q-43 38 -101.5 48t-116.5 -10q-57 -16 -108 -57q0 6 -7 6q-52 47 -112.5 58.5t-117.5 -13.5q-68 -24 -103 -75t-25 -117q8 -72 83 -147l90 -90l57 -57q5 -5 13 -5t13 4.5t5 12.5t-5 13l-64 64q-13 16 -42 45t-41 45q-69 57 -77 121q-5 58 27 98t82 62
q96 37 192 -44l19 -20q3 0 9.5 -3t9.5 -3t9.5 3t9.5 3q39 39 96 58q49 18 97 7t82 -45t43 -85.5t-11 -94.5q-5 -12 -13 -24t-24 -28t-22 -21.5t-30 -25.5t-26 -22q-27 -18 -45 -45q-15 -15 -48 -43.5t-48 -46.5q-9 -9 -31.5 -28.5t-32.5 -28.5q-6 0 -32 25q-4 5 -12 5
t-13 -5q-7 4 -9 3q-4 -2 6 -8q1 0 3 -1q5 -17 19 -31t32 -14q13 0 19 7q45 44 64 57q16 13 48 45t55 51q25 26 44 39q2 1 22.5 18.5t26 22.5t22 20.5t24 24.5t17.5 22.5t16 25.5q24 59 12.5 119.5t-50.5 104.5zM691 454q-13 0 -19 7q5 -3 10.5 -6.5t9 -5t6.5 -1.5h25
q0 19 -6 32q0 3 -3.5 9.5t-3.5 9.5q-3 3 -6 9.5t-6.5 10t-9.5 6.5t-10 6l-6 7q-6 6 -19 6h-19q-13 0 -13 -6v-7l6 -6h-6q-7 6 0 6h19q3 0 6.5 -3t6.5 -3q6 -7 13 -7q3 0 6 -3t6 -3q13 -13 20 -26l12 -12v-7q-6 -13 -19 -13z" />
    <glyph glyph-name="zhinanzhen503" unicode="&#xe638;" 
d="M512 -128q-138 0 -256 69t-187 187t-69 256t69 256t187 187t256 69t256 -69t187 -187t69 -256q0 -90 -32 -186q0 -5 -7 -7.5t-12 1.5q-13 0 -13 19q32 96 32 173q0 129 -65 239.5t-175.5 175.5t-239.5 65t-239.5 -65t-175.5 -175.5t-65 -239.5t65 -239.5t175.5 -175.5
t239.5 -65q105 0 202 45.5t169 127.5q10 9 19.5 -0.5t-0.5 -18.5q-71 -91 -172.5 -138.5t-217.5 -47.5zM320 166q-13 0 -19.5 6.5t-6.5 25.5l122 250q6 13 32 26l250 121q5 4 12.5 1.5t12.5 -7.5q7 -7 7 -26l-135 -256q-6 -6 -32 -19l-237 -115q0 -3 -1.5 -4.5t-2.5 -1.5z
M685 557l-224 -109q-13 -13 -13 -19l-109 -224l218 102q0 7 3 12t3 7z" />
  </font>
</defs>
</svg>
